<?xml version="1.0" standalone="no"?>
<!DOCTYPE svg PUBLIC "-//W3C//DTD SVG 20010904//EN"
 "http://www.w3.org/TR/2001/REC-SVG-20010904/DTD/svg10.dtd">
<svg version="1.0" xmlns="http://www.w3.org/2000/svg"
 width="550.000000pt" height="600.000000pt" viewBox="0 0 550.000000 600.000000"
 preserveAspectRatio="xMidYMid meet">

<g transform="translate(0.000000,600.000000) scale(0.100000,-0.100000)"
fill="#7d8af8" stroke="none">
<path d="M4743 5905 c-65 -20 -128 -61 -166 -108 -63 -77 -95 -156 -176 -442
-69 -243 -125 -356 -207 -415 l-41 -29 -90 112 c-122 150 -277 302 -418 409
-277 210 -590 344 -940 405 -156 26 -483 24 -640 -5 -695 -129 -1283 -589
-1624 -1271 -339 -676 -394 -1461 -155 -2202 l34 -105 -25 -110 c-136 -602
-107 -1014 94 -1340 204 -329 588 -547 1126 -639 440 -74 1217 -83 1720 -19
701 89 1114 352 1280 817 55 155 69 252 69 487 0 230 -15 362 -69 637 l-34
171 30 89 c93 273 138 530 146 844 8 295 -21 573 -82 798 l-14 55 36 60 c77
129 159 217 243 262 30 16 51 18 155 15 268 -10 295 -4 374 85 96 110 91 295
-12 402 -70 73 -112 84 -356 91 l-203 6 189 190 c223 225 244 257 251 395 5
101 -17 172 -72 236 -86 101 -295 160 -423 119z m201 -119 c100 -30 169 -122
170 -225 0 -85 -28 -128 -177 -271 -361 -346 -379 -367 -357 -421 20 -47 57
-53 301 -46 305 10 373 -5 411 -90 37 -83 8 -186 -60 -219 -29 -14 -49 -14
-160 -4 -147 14 -215 5 -301 -37 -66 -32 -152 -116 -212 -207 -35 -54 -45 -63
-51 -49 -4 10 -25 63 -46 118 -47 120 -115 262 -176 368 l-44 77 51 53 c103
104 170 258 262 592 38 139 82 245 118 283 76 82 169 109 271 78z m-2303 -71
c211 -28 396 -83 586 -176 226 -111 403 -241 594 -435 399 -409 645 -967 700
-1585 14 -166 6 -518 -15 -652 -68 -421 -201 -769 -417 -1092 -276 -413 -659
-715 -1090 -859 -202 -67 -320 -88 -542 -94 -209 -5 -325 5 -486 45 -610 147
-1124 579 -1426 1198 -199 406 -287 830 -272 1309 9 285 48 505 138 781 51
157 194 459 266 565 43 62 43 62 353 175 392 142 761 233 1030 253 l105 8 -65
12 c-338 61 -800 27 -1075 -79 -42 -16 -79 -29 -83 -29 -14 0 139 146 233 223
308 249 636 388 1040 440 75 10 330 5 426 -8z m1800 -3850 c30 -188 33 -513 6
-655 -24 -127 -74 -271 -128 -367 -55 -97 -203 -251 -307 -318 -208 -133 -485
-215 -882 -260 -315 -35 -865 -42 -1230 -14 -395 30 -712 105 -954 228 -376
191 -565 476 -607 914 -13 144 -2 339 31 532 11 64 20 121 20 126 0 18 19 8
26 -13 13 -44 117 -224 199 -348 367 -548 912 -902 1520 -986 174 -23 473 -15
645 19 654 129 1233 586 1570 1239 64 124 55 133 91 -97z"/>
<path d="M2165 4623 c-22 -2 -109 -15 -193 -29 -623 -103 -1155 -428 -1355
-829 -59 -119 -79 -196 -85 -332 -13 -340 127 -693 376 -946 227 -230 474
-298 756 -207 54 17 176 68 270 112 290 135 381 168 472 168 80 0 215 -49 479
-175 341 -163 532 -185 751 -85 196 89 385 292 504 543 76 160 114 295 129
455 25 278 -63 512 -279 736 -300 312 -789 527 -1332 586 -90 9 -400 11 -493
3z m621 -152 c330 -56 630 -169 864 -326 295 -196 454 -413 489 -665 30 -216
-63 -538 -220 -765 -114 -166 -281 -292 -439 -331 -150 -38 -275 -7 -624 155
-278 129 -331 145 -461 145 -124 -1 -180 -19 -431 -137 -221 -104 -294 -133
-397 -159 -152 -38 -302 -10 -441 82 -269 181 -466 573 -466 929 0 143 33 253
115 381 223 348 737 625 1300 699 44 6 94 13 110 15 17 2 131 3 255 1 170 -2
254 -8 346 -24z"/>
<path d="M1256 3769 c-28 -22 -68 -94 -80 -141 -7 -32 -9 -31 119 -48 131 -19
132 -19 88 -42 -167 -88 -189 -262 -47 -370 80 -61 158 -83 294 -82 129 1 195
19 276 75 113 77 135 187 61 300 l-17 26 47 -8 c74 -12 78 -12 62 7 -31 37
-327 166 -574 250 -88 30 -170 54 -181 54 -12 0 -33 -9 -48 -21z"/>
<path d="M3345 3746 c-173 -58 -345 -127 -480 -190 -110 -53 -158 -86 -119
-86 11 1 38 5 62 9 23 5 42 7 42 5 0 -2 -11 -20 -25 -40 -86 -127 -5 -276 185
-340 83 -28 254 -26 340 4 86 30 138 67 178 126 36 54 43 120 18 180 -17 41
-75 100 -123 125 -44 22 -40 24 93 42 51 6 97 15 103 18 8 5 7 23 -6 61 -21
64 -79 130 -114 130 -13 0 -82 -20 -154 -44z"/>
</g>
</svg>
